<?xml version="1.0" encoding="UTF-8"?>
<svg id="Layer_2" data-name="Layer 2" xmlns="http://www.w3.org/2000/svg" xmlns:xlink="http://www.w3.org/1999/xlink" viewBox="0 0 83.43 65.19">
  <defs>
    <style>
      .cls-1 {
        fill: url(#Orange_Yellow);
      }

      .cls-2 {
        fill: #fff;
      }

      .cls-3 {
        fill: url(#Orange_Yellow-2);
      }

      .cls-4 {
        fill: url(#Orange_Yellow-3);
      }
    </style>
    <linearGradient id="Orange_Yellow" data-name="Orange, Yellow" x1="29.13" y1="-30.21" x2="72.05" y2="28.68" gradientUnits="userSpaceOnUse">
      <stop offset="0" stop-color="#fff23a"/>
      <stop offset=".04" stop-color="#fee52c"/>
      <stop offset=".12" stop-color="#fdd41a"/>
      <stop offset=".2" stop-color="#fdc90e"/>
      <stop offset=".28" stop-color="#fdc60b"/>
      <stop offset=".67" stop-color="#f28f3f"/>
      <stop offset=".89" stop-color="#ed693c"/>
      <stop offset="1" stop-color="#e83e39"/>
    </linearGradient>
    <linearGradient id="Orange_Yellow-2" data-name="Orange, Yellow" x1="7.6" y1="-14.52" x2="50.52" y2="44.37" href="#Orange_Yellow"/>
    <linearGradient id="Orange_Yellow-3" data-name="Orange, Yellow" x1="-5.9" y1="-4.69" x2="37.02" y2="54.2" href="#Orange_Yellow"/>
  </defs>
  <g id="Layer_1-2" data-name="Layer 1">
    <g>
      <g>
        <path class="cls-2" d="M5.55,64.75c-.07-.11-.13-.23-.19-.35-.06-.12-.11-.24-.16-.36-.87-2.28-1.73-4.54-2.59-6.78-.86-2.24-1.72-4.5-2.59-6.78,0-.03,0-.06-.02-.09,0-.03-.01-.05-.01-.08,0-.19.12-.28.37-.28h3.24c.25,0,.43.13.52.38l3.08,9.17,2.85-9.17c.09-.25.28-.38.55-.38h3.27c.15,0,.26.03.33.09.06.06.1.13.1.23,0,.05,0,.09,0,.11v.03l-1.79,5.13,1.35,3.95,3.26-9.16c.09-.25.28-.38.55-.38h3.17c.15,0,.26.03.33.09.06.06.1.13.1.23,0,.05,0,.09,0,.11v.03c-.46,1.18-.92,2.36-1.4,3.53-.48,1.17-.95,2.35-1.43,3.52-.48,1.17-.96,2.35-1.43,3.53-.47,1.18-.93,2.35-1.38,3.53-.03.07-.09.16-.18.25-.09.09-.21.14-.34.14h-2.47c-.15,0-.26-.03-.34-.09-.08-.06-.13-.13-.17-.23l-1.59-4.19c-.23.61-.45,1.21-.67,1.8s-.44,1.19-.66,1.8c-.03.09-.07.19-.12.3-.04.1-.1.2-.16.29-.06.09-.13.17-.21.23-.08.06-.17.09-.27.09h-2.47c-.21,0-.36-.07-.42-.21Z"/>
        <path class="cls-2" d="M19.92,58.58c0-.62.08-1.21.24-1.78.16-.57.38-1.1.66-1.58.28-.49.63-.93,1.03-1.33s.84-.74,1.33-1.02c.49-.28,1.02-.5,1.58-.65.57-.15,1.16-.23,1.78-.23.91,0,1.77.17,2.57.51.8.34,1.5.8,2.09,1.4s1.06,1.29,1.41,2.09c.35.8.52,1.67.52,2.6,0,.62-.08,1.21-.24,1.78-.16.57-.38,1.1-.66,1.59-.29.49-.63.93-1.03,1.33-.4.4-.84.74-1.33,1.03-.49.28-1.01.5-1.57.66s-1.15.23-1.76.23-1.21-.08-1.78-.23-1.1-.37-1.58-.66c-.49-.29-.93-.63-1.33-1.03s-.74-.84-1.03-1.33c-.29-.49-.51-1.02-.66-1.59-.16-.57-.24-1.16-.24-1.78ZM23.6,58.58c0,.44.07.86.21,1.24.14.39.33.72.58,1,.25.28.56.5.92.67.36.16.76.25,1.21.25s.83-.08,1.18-.25c.35-.16.65-.39.9-.67.24-.28.43-.62.56-1,.13-.39.2-.8.2-1.24s-.07-.84-.2-1.23-.32-.73-.56-1.03c-.25-.29-.54-.53-.9-.7-.35-.17-.75-.26-1.18-.26s-.85.09-1.21.26c-.36.17-.66.4-.92.7-.25.3-.45.64-.58,1.03s-.21.8-.21,1.23Z"/>
        <path class="cls-2" d="M37.42,50.48c0-.14.04-.25.12-.34.08-.08.19-.13.33-.13h6.68c.59,0,1.15.11,1.67.34.52.23.98.53,1.37.93s.7.85.93,1.38c.23.53.34,1.09.34,1.7,0,.5-.08.97-.24,1.4-.16.43-.38.82-.67,1.16.48.44.87.97,1.15,1.58.28.61.42,1.26.42,1.94,0,.61-.12,1.19-.35,1.74-.24.55-.55,1.03-.95,1.44-.4.41-.87.74-1.4.98-.53.24-1.1.36-1.69.36h-7.28c-.13,0-.24-.04-.32-.11s-.12-.18-.12-.33v-14.05ZM45,54.44c0-.2-.04-.39-.11-.56-.07-.17-.18-.33-.31-.46s-.3-.24-.48-.32c-.19-.08-.39-.12-.62-.12h-2.16v2.92h2.13c.23,0,.44-.04.63-.11s.35-.17.49-.3.24-.28.32-.46c.08-.18.12-.37.12-.59ZM45.53,60.29c0-.2-.04-.4-.12-.6-.08-.2-.19-.38-.32-.54-.14-.16-.3-.29-.49-.39-.19-.1-.4-.15-.62-.15h-2.66v3.36h2.66c.22,0,.43-.05.62-.14.19-.09.35-.22.49-.38.14-.16.25-.34.33-.54.08-.2.12-.41.12-.62Z"/>
        <path class="cls-2" d="M63.96,64.21c0,.11-.02.22-.06.33-.04.1-.11.19-.2.25-.07.07-.16.12-.26.14-.1.02-.19.03-.26.03h-1.98c-.14,0-.25-.02-.34-.06-.09-.04-.16-.09-.21-.16-.05-.07-.1-.15-.14-.25-.04-.1-.08-.2-.12-.32l-.13-.45c-.18.18-.39.36-.62.53-.23.17-.49.33-.76.47-.28.14-.58.25-.9.33-.32.08-.65.13-.99.13-.61,0-1.2-.08-1.76-.23s-1.08-.37-1.57-.66c-.49-.29-.93-.63-1.32-1.03s-.74-.84-1.02-1.33c-.29-.49-.5-1.02-.66-1.59-.15-.57-.23-1.16-.23-1.78,0-.93.17-1.8.51-2.6.34-.8.81-1.5,1.4-2.09s1.28-1.06,2.08-1.4c.8-.34,1.65-.51,2.57-.51.42,0,.8.05,1.16.14.36.09.69.22.99.38.3.16.57.35.81.58.24.23.45.47.63.73l.29-.92c.07-.17.12-.3.17-.41.04-.1.09-.18.14-.23.05-.05.11-.08.19-.1.07-.02.18-.03.31-.03h1.5c.07,0,.16,0,.26.03.1.02.19.07.26.14.09.07.16.16.2.25.04.09.06.2.06.32v11.34ZM54.05,58.58c0,.44.07.86.21,1.24.14.39.33.72.59,1,.25.28.56.5.92.67.36.16.76.25,1.19.25s.87-.08,1.25-.25c.39-.16.72-.39,1.01-.67.28-.28.51-.62.67-1,.16-.39.24-.8.24-1.24s-.08-.84-.24-1.23-.38-.73-.67-1.03c-.29-.29-.62-.53-1.01-.7-.39-.17-.8-.26-1.25-.26s-.83.09-1.19.26c-.36.17-.67.4-.92.7-.26.3-.45.64-.59,1.03s-.21.8-.21,1.23Z"/>
        <path class="cls-2" d="M65.45,50.46c0-.13.04-.24.13-.32.08-.08.2-.12.35-.12h11.68c.13,0,.24.04.33.11.09.07.14.18.14.33v2.03c0,.05,0,.1,0,.15,0,.05-.02.11-.06.18l-7.29,8.68h6.91c.13,0,.23.04.32.11.09.07.13.19.13.34v2.51c0,.11-.04.22-.13.33-.08.11-.19.16-.33.16h-11.68c-.13,0-.25-.04-.34-.13-.09-.09-.14-.21-.14-.36v-2.17c0-.11.02-.19.07-.26l7.27-8.57h-6.89c-.15,0-.26-.04-.35-.12-.08-.08-.13-.2-.13-.38v-2.52Z"/>
        <path class="cls-2" d="M79.56,47.87c0-.28.06-.48.18-.6s.31-.18.56-.18h2.33c.23,0,.42.06.57.18.14.12.22.32.22.6v1.96c0,.08-.02.17-.06.26-.04.09-.09.18-.16.27s-.15.16-.25.22c-.1.06-.21.09-.33.09h-2.33c-.5,0-.74-.28-.74-.83v-1.96ZM79.56,52.96c0-.21.06-.4.18-.55.12-.15.31-.23.56-.23h2.3c.08,0,.17.02.26.06.09.04.18.09.26.16s.15.15.21.25c.06.09.09.2.09.32v11.22c0,.25-.07.45-.21.58s-.34.2-.6.2h-2.3c-.5,0-.74-.26-.74-.77v-11.22Z"/>
      </g>
      <g>
        <path class="cls-1" d="M73.67,13.68c0-1.29,0-2.6,0-3.89h-22.5s-.32,3.89-.32,3.89h-6.12V3.69h13.91l-.56-2.22,5.87-1.47,2.76,3.69h13.63v10c-2.08-.23-4.7.32-6.68,0,0,.35,1,1.22.05,1.95l-7.28,5.83h13.08c1.58,1.46.58,4.12.83,6.11h-14.47c1.01,9.37-2.32,10.66-10.86,11.16l-.89-.38-2.16-6.33,6.71.31.52-4.75h-14.47v-6.11h14.47c.1,0-.08-1.19.52-1.96s2.01-.87,2.27-1.92h-10.02v-5.55h16.97c.2,0,.72-.69,1.54-.49,1.01.24,1.31,1.86,3.19,2.16Z"/>
        <path class="cls-3" d="M41.39,35.33l-5.76,3.28c-7.57-8.06-9.05-20.22-10.86-30.72l-2.3-.32V1.46s8.11.52,8.11.52c.86,7.84,2.03,15.88,5.15,23.18,1.59,3.73,4.05,6.57,5.67,10.16Z"/>
        <path class="cls-4" d="M13,2.57l6.44.52c-.27,7.99-1.17,17.37-4.1,24.86-.72,1.83-5.55,11.03-7.54,10.68l-4.8-4.12C11.79,26.51,12.28,13.66,13,2.57Z"/>
      </g>
    </g>
  </g>
</svg>