<?xml version="1.0" encoding="UTF-8"?>
<svg id="Layer_2" data-name="Layer 2" xmlns="http://www.w3.org/2000/svg" xmlns:xlink="http://www.w3.org/1999/xlink" viewBox="0 0 159.28 24.46">
  <defs>
    <style>
      .cls-1 {
        fill: url(#Orange_Yellow);
      }

      .cls-2 {
        fill: #fff;
      }

      .cls-3 {
        fill: url(#Orange_Yellow-2);
      }

      .cls-4 {
        fill: url(#Orange_Yellow-3);
      }
    </style>
    <linearGradient id="Orange_Yellow" data-name="Orange, Yellow" x1="14.32" y1="-16.17" x2="43.76" y2="19.26" gradientUnits="userSpaceOnUse">
      <stop offset="0" stop-color="#fff23a"/>
      <stop offset=".04" stop-color="#fee52c"/>
      <stop offset=".12" stop-color="#fdd41a"/>
      <stop offset=".2" stop-color="#fdc90e"/>
      <stop offset=".28" stop-color="#fdc60b"/>
      <stop offset=".67" stop-color="#f28f3f"/>
      <stop offset=".89" stop-color="#ed693c"/>
      <stop offset="1" stop-color="#e83e39"/>
    </linearGradient>
    <linearGradient id="Orange_Yellow-2" data-name="Orange, Yellow" x1="2.27" y1="-6.16" x2="31.72" y2="29.28" href="#Orange_Yellow"/>
    <linearGradient id="Orange_Yellow-3" data-name="Orange, Yellow" x1="-5.17" y1=".03" x2="24.27" y2="35.46" href="#Orange_Yellow"/>
  </defs>
  <g id="Layer_1-2" data-name="Layer 1">
    <g>
      <g>
        <path class="cls-2" d="M62.95,21.83c-.08-.14-.16-.29-.24-.44-.07-.15-.14-.3-.2-.45-1.07-2.82-2.14-5.62-3.2-8.39-1.06-2.77-2.13-5.57-3.2-8.39,0-.04,0-.08-.02-.11s-.02-.07-.02-.1c0-.23.15-.35.46-.35h4.01c.32,0,.53.16.65.47l3.81,11.34,3.52-11.34c.12-.32.34-.47.69-.47h4.05c.19,0,.33.04.4.11.08.07.12.16.12.28,0,.07,0,.11-.01.14v.04l-2.22,6.35,1.67,4.89,4.03-11.33c.12-.32.34-.47.69-.47h3.92c.19,0,.33.04.4.11.08.07.12.16.12.28,0,.07,0,.11-.01.14v.04c-.56,1.46-1.14,2.92-1.73,4.37-.59,1.45-1.18,2.9-1.77,4.36-.59,1.45-1.18,2.91-1.77,4.36-.58,1.46-1.16,2.91-1.71,4.36-.03.09-.11.19-.22.3-.12.11-.26.17-.42.17h-3.05c-.18,0-.32-.04-.42-.11-.1-.07-.16-.16-.21-.28l-1.97-5.18c-.28.76-.56,1.5-.83,2.22-.27.73-.55,1.47-.82,2.22-.04.12-.09.24-.14.37-.05.13-.12.25-.19.36-.07.11-.16.21-.25.28-.1.07-.21.11-.33.11h-3.05c-.27,0-.44-.09-.52-.26Z"/>
        <path class="cls-2" d="M80.72,14.2c0-.76.1-1.5.29-2.2.19-.71.47-1.36.82-1.96.35-.6.78-1.15,1.27-1.64s1.04-.92,1.65-1.26,1.26-.62,1.96-.81c.7-.19,1.43-.29,2.2-.29,1.13,0,2.19.21,3.18.63.99.42,1.85,1,2.59,1.73s1.32,1.6,1.74,2.59.64,2.06.64,3.22c0,.76-.1,1.5-.29,2.2-.2.7-.47,1.35-.82,1.96-.35.61-.78,1.16-1.27,1.65s-1.04.92-1.65,1.27c-.61.35-1.26.62-1.95.82-.69.19-1.42.29-2.17.29s-1.5-.1-2.2-.29c-.7-.19-1.35-.46-1.96-.82-.61-.35-1.16-.78-1.65-1.27s-.92-1.04-1.27-1.65c-.35-.61-.63-1.26-.82-1.96-.19-.7-.29-1.43-.29-2.2ZM85.27,14.2c0,.55.09,1.06.26,1.54.17.48.41.89.72,1.24.31.35.69.62,1.13.83.44.2.94.31,1.5.31s1.03-.1,1.46-.31c.44-.2.81-.48,1.11-.83.3-.35.53-.76.7-1.24.16-.48.24-.99.24-1.54s-.08-1.04-.24-1.52-.39-.9-.7-1.27c-.3-.36-.67-.65-1.11-.87-.44-.21-.92-.32-1.46-.32s-1.06.11-1.5.32c-.44.21-.82.5-1.13.87-.31.37-.55.79-.72,1.27s-.26.99-.26,1.52Z"/>
        <path class="cls-2" d="M102.37,4.18c0-.17.05-.31.14-.42.1-.1.23-.16.4-.16h8.27c.73,0,1.42.14,2.07.42.65.28,1.21.66,1.7,1.15s.87,1.05,1.15,1.71.42,1.35.42,2.1c0,.62-.1,1.2-.29,1.74-.19.54-.47,1.01-.83,1.44.6.55,1.07,1.2,1.42,1.95s.52,1.56.52,2.4c0,.76-.14,1.47-.44,2.15s-.68,1.27-1.18,1.78c-.49.51-1.07.92-1.73,1.21-.66.3-1.35.45-2.09.45h-9c-.17,0-.3-.04-.4-.13s-.15-.22-.15-.4V4.18ZM111.74,9.09c0-.25-.05-.48-.14-.7-.09-.22-.22-.41-.39-.57s-.37-.3-.6-.39c-.23-.1-.49-.14-.76-.14h-2.67v3.61h2.63c.28,0,.54-.04.78-.13s.44-.21.6-.37.3-.35.39-.57c.1-.22.14-.46.14-.73ZM112.4,16.32c0-.25-.05-.5-.14-.75-.1-.25-.23-.47-.4-.67-.17-.19-.37-.35-.61-.48-.24-.12-.49-.19-.77-.19h-3.29v4.16h3.29c.27,0,.53-.06.76-.17.23-.12.44-.27.61-.47.17-.19.31-.42.41-.67.1-.25.14-.51.14-.77Z"/>
        <path class="cls-2" d="M135.19,21.17c0,.14-.02.28-.07.4-.05.13-.13.23-.25.3-.09.09-.2.15-.32.17-.12.02-.23.04-.32.04h-2.45c-.17,0-.32-.02-.42-.07-.11-.05-.19-.11-.26-.19s-.12-.18-.17-.3c-.05-.12-.09-.25-.14-.39l-.16-.56c-.22.22-.48.44-.77.66-.29.22-.6.41-.95.58s-.71.31-1.11.41c-.39.1-.8.16-1.23.16-.76,0-1.48-.1-2.17-.29-.69-.19-1.34-.46-1.94-.82-.6-.35-1.15-.78-1.64-1.27s-.91-1.04-1.26-1.65c-.35-.61-.62-1.26-.82-1.96-.19-.7-.29-1.43-.29-2.2,0-1.15.21-2.23.63-3.22.42-.99,1-1.85,1.73-2.59s1.59-1.31,2.58-1.73c.99-.42,2.04-.63,3.17-.63.51,0,.99.06,1.44.17.44.12.85.27,1.22.47.37.2.7.44,1,.72.3.28.56.58.78.9l.36-1.13c.08-.21.15-.38.21-.5.05-.13.11-.22.17-.29.06-.06.14-.1.23-.12s.22-.03.39-.03h1.85c.09,0,.2.01.32.04.12.02.23.08.32.17.12.09.2.19.25.31.05.12.07.25.07.4v14.03ZM122.93,14.2c0,.55.09,1.06.26,1.54.17.48.41.89.73,1.24s.7.62,1.14.83c.44.2.94.31,1.48.31s1.07-.1,1.55-.31c.48-.2.89-.48,1.24-.83s.63-.76.83-1.24c.2-.48.3-.99.3-1.54s-.1-1.04-.3-1.52c-.2-.48-.48-.9-.83-1.27-.35-.36-.77-.65-1.24-.87-.48-.21-.99-.32-1.55-.32s-1.03.11-1.48.32c-.44.21-.82.5-1.14.87-.32.37-.56.79-.73,1.27s-.26.99-.26,1.52Z"/>
        <path class="cls-2" d="M137.03,4.16c0-.16.05-.3.16-.4.1-.1.25-.15.43-.15h14.45c.16,0,.29.05.4.14.11.09.17.23.17.41v2.51c0,.07,0,.13,0,.19s-.03.13-.07.22l-9.01,10.74h8.55c.16,0,.29.05.4.14s.16.23.16.42v3.1c0,.14-.05.28-.16.41-.1.13-.24.2-.4.2h-14.45c-.17,0-.31-.05-.42-.16s-.17-.26-.17-.45v-2.68c0-.13.03-.24.09-.32l8.99-10.6h-8.53c-.18,0-.33-.05-.43-.14-.1-.1-.16-.25-.16-.47v-3.12Z"/>
        <path class="cls-2" d="M154.5.96c0-.35.07-.59.22-.74.15-.15.38-.22.7-.22h2.89c.29,0,.52.07.7.22s.27.39.27.74v2.43c0,.1-.02.21-.07.32-.05.12-.11.23-.19.34-.08.11-.18.2-.31.27-.12.07-.25.11-.4.11h-2.89c-.61,0-.92-.34-.92-1.03V.96ZM154.5,7.26c0-.27.07-.49.22-.69.15-.19.38-.29.7-.29h2.85c.1,0,.21.02.32.07.12.05.22.11.32.2.1.09.18.19.26.3.07.12.11.25.11.4v13.88c0,.32-.09.55-.26.72s-.42.24-.75.24h-2.85c-.61,0-.92-.32-.92-.96V7.26Z"/>
      </g>
      <g>
        <path class="cls-1" d="M43.16,9.17c0-.79,0-1.59,0-2.38h-13.74s-.19,2.38-.19,2.38h-3.74V3.06h8.5l-.34-1.35,3.58-.9,1.69,2.25h8.33v6.1c-1.27-.14-2.87.19-4.08,0,0,.21.61.74.03,1.19l-4.45,3.56h7.99c.97.89.36,2.52.51,3.73h-8.84c.62,5.73-1.42,6.51-6.63,6.81l-.55-.23-1.32-3.87,4.1.19.32-2.9h-8.84v-3.73h8.84c.06,0-.05-.73.32-1.2s1.23-.53,1.38-1.17h-6.12v-3.39h10.37c.12,0,.44-.42.94-.3.62.15.8,1.13,1.95,1.32Z"/>
        <path class="cls-3" d="M23.45,22.39l-3.52,2c-4.62-4.92-5.53-12.35-6.64-18.76l-1.4-.19V1.71s4.95.32,4.95.32c.53,4.79,1.24,9.7,3.14,14.16.97,2.28,2.47,4.01,3.46,6.21Z"/>
        <path class="cls-4" d="M6.11,2.38l3.93.32c-.17,4.88-.72,10.61-2.51,15.18-.44,1.12-3.39,6.73-4.61,6.52l-2.93-2.52C5.37,17,5.67,9.15,6.11,2.38Z"/>
      </g>
    </g>
  </g>
</svg>